#define launch_width 20
#define launch_height 20
static unsigned char launch_bits[] = {
   0xff, 0xff, 0x0f, 0xff, 0xff, 0x0f, 0x03, 0x00, 0x0c, 0xfb, 0xff, 0x0f,
   0x0b, 0xf8, 0x0f, 0xeb, 0xff, 0x0f, 0xeb, 0xff, 0x0f, 0xeb, 0xff, 0x0f,
   0xeb, 0xff, 0x0f, 0xeb, 0xff, 0x0f, 0xeb, 0xff, 0x0f, 0xfb, 0xff, 0x0f,
   0xfb, 0xff, 0x0f, 0xfb, 0xff, 0x0d, 0xfb, 0xff, 0x0d, 0xfb, 0xff, 0x0d,
   0xfb, 0xff, 0x0d, 0xfb, 0x1f, 0x0c, 0xff, 0xff, 0x0f, 0xff, 0xff, 0x0f };
