#define maximize_width 20
#define maximize_height 20
static unsigned char maximize_bits[] = {
   0xff, 0xff, 0x0f, 0xff, 0x03, 0x08, 0xff, 0xff, 0x0b, 0x07, 0x00, 0x0a,
   0xf7, 0xff, 0x0a, 0xf7, 0xff, 0x0a, 0xf7, 0xff, 0x0a, 0xf7, 0xff, 0x0a,
   0xf7, 0xff, 0x0a, 0xf7, 0xff, 0x0e, 0xf7, 0xff, 0x0e, 0xf5, 0xff, 0x0e,
   0xf5, 0xff, 0x0e, 0xf5, 0xff, 0x0e, 0xf5, 0xff, 0x0e, 0xf5, 0xff, 0x0e,
   0x05, 0x00, 0x0e, 0xfd, 0xff, 0x0f, 0x01, 0xfc, 0x0f, 0xff, 0xff, 0x0f };
