#define shutdown2_width 20
#define shutdown2_height 20
static unsigned char shutdown2_bits[] = {
   0xff, 0xff, 0x0f, 0xff, 0xff, 0x0f, 0x87, 0x19, 0x0e, 0x83, 0x19, 0x0c,
   0xe3, 0x79, 0x0c, 0xf3, 0xf9, 0x0c, 0xf3, 0xf9, 0x0c, 0xf3, 0xf9, 0x0c,
   0xf3, 0xf9, 0x0c, 0xf3, 0xf9, 0x0c, 0xf3, 0xf9, 0x0c, 0xf3, 0xff, 0x0c,
   0xf3, 0xff, 0x0c, 0xf3, 0xff, 0x0c, 0xf3, 0xff, 0x0c, 0xe3, 0x7f, 0x0c,
   0x03, 0x00, 0x0c, 0x07, 0x00, 0x0e, 0xff, 0xff, 0x0f, 0xff, 0xff, 0x0f };
