#define demaximize_width 20
#define demaximize_height 20
static unsigned char demaximize_bits[] = {
   0xff, 0xff, 0x0f, 0xff, 0xef, 0x0f, 0xff, 0xef, 0x0f, 0x07, 0x68, 0x0e,
   0xf7, 0xef, 0x0e, 0xf7, 0xef, 0x0f, 0xf7, 0xef, 0x0f, 0xf7, 0x0f, 0x08,
   0xf7, 0xff, 0x0f, 0xf7, 0xff, 0x0e, 0xf7, 0xff, 0x0e, 0xff, 0xff, 0x0e,
   0x01, 0xff, 0x0e, 0x7f, 0xff, 0x0e, 0x7f, 0xff, 0x0e, 0x77, 0xff, 0x0e,
   0x67, 0x01, 0x0e, 0x7f, 0xff, 0x0f, 0x7f, 0xff, 0x0f, 0xff, 0xff, 0x0f };
